<mxfile host="65bd71144e">
    <diagram id="3ofyAsG63kuh5lETCyS0" name="Page-1">
        <mxGraphModel dx="888" dy="1610" grid="1" gridSize="10" guides="1" tooltips="1" connect="1" arrows="1" fold="1" page="1" pageScale="1" pageWidth="827" pageHeight="1169" math="0" shadow="0">
            <root>
                <mxCell id="0"/>
                <mxCell id="1" parent="0"/>
                <mxCell id="LmdTJsE1u3Maj20NN5aT-29" value="" style="group" parent="1" vertex="1" connectable="0">
                    <mxGeometry x="80" y="190" width="380" height="343" as="geometry"/>
                </mxCell>
                <mxCell id="LmdTJsE1u3Maj20NN5aT-26" value="" style="rounded=0;whiteSpace=wrap;html=1;fontSize=14;" parent="LmdTJsE1u3Maj20NN5aT-29" vertex="1">
                    <mxGeometry width="380" height="343" as="geometry"/>
                </mxCell>
                <mxCell id="15" value="" style="rounded=0;whiteSpace=wrap;html=1;fillColor=#647687;fontColor=#ffffff;strokeColor=#314354;" parent="LmdTJsE1u3Maj20NN5aT-29" vertex="1">
                    <mxGeometry x="15" y="60" width="350" height="270" as="geometry"/>
                </mxCell>
                <mxCell id="16" value="" style="endArrow=none;html=1;exitX=0;exitY=0.25;exitDx=0;exitDy=0;entryX=1;entryY=0.25;entryDx=0;entryDy=0;" parent="LmdTJsE1u3Maj20NN5aT-29" source="15" target="15" edge="1">
                    <mxGeometry width="50" height="50" relative="1" as="geometry">
                        <mxPoint x="405" y="240" as="sourcePoint"/>
                        <mxPoint x="455" y="190" as="targetPoint"/>
                    </mxGeometry>
                </mxCell>
                <mxCell id="17" value="" style="endArrow=none;html=1;exitX=0.003;exitY=0.115;exitDx=0;exitDy=0;exitPerimeter=0;entryX=1.003;entryY=0.119;entryDx=0;entryDy=0;entryPerimeter=0;" parent="LmdTJsE1u3Maj20NN5aT-29" source="15" target="15" edge="1">
                    <mxGeometry width="50" height="50" relative="1" as="geometry">
                        <mxPoint x="15" y="110" as="sourcePoint"/>
                        <mxPoint x="395" y="100" as="targetPoint"/>
                    </mxGeometry>
                </mxCell>
                <mxCell id="18" value="" style="endArrow=none;html=1;entryX=0.5;entryY=0;entryDx=0;entryDy=0;" parent="LmdTJsE1u3Maj20NN5aT-29" target="15" edge="1">
                    <mxGeometry width="50" height="50" relative="1" as="geometry">
                        <mxPoint x="190" y="130" as="sourcePoint"/>
                        <mxPoint x="455" y="190" as="targetPoint"/>
                    </mxGeometry>
                </mxCell>
                <mxCell id="20" value="源端口号" style="text;html=1;strokeColor=none;fillColor=none;align=center;verticalAlign=middle;whiteSpace=wrap;rounded=0;" parent="LmdTJsE1u3Maj20NN5aT-29" vertex="1">
                    <mxGeometry x="75" y="60" width="60" height="30" as="geometry"/>
                </mxCell>
                <mxCell id="21" value="目标端口号" style="text;html=1;strokeColor=none;fillColor=none;align=center;verticalAlign=middle;whiteSpace=wrap;rounded=0;" parent="LmdTJsE1u3Maj20NN5aT-29" vertex="1">
                    <mxGeometry x="245" y="60" width="70" height="30" as="geometry"/>
                </mxCell>
                <mxCell id="22" value="长度" style="text;html=1;strokeColor=none;fillColor=none;align=center;verticalAlign=middle;whiteSpace=wrap;rounded=0;" parent="LmdTJsE1u3Maj20NN5aT-29" vertex="1">
                    <mxGeometry x="73" y="94" width="60" height="30" as="geometry"/>
                </mxCell>
                <mxCell id="23" value="校验和" style="text;html=1;strokeColor=none;fillColor=none;align=center;verticalAlign=middle;whiteSpace=wrap;rounded=0;" parent="LmdTJsE1u3Maj20NN5aT-29" vertex="1">
                    <mxGeometry x="245" y="94" width="60" height="30" as="geometry"/>
                </mxCell>
                <mxCell id="24" value="应用程序数据（报文）" style="text;html=1;strokeColor=none;fillColor=none;align=center;verticalAlign=middle;whiteSpace=wrap;rounded=0;" parent="LmdTJsE1u3Maj20NN5aT-29" vertex="1">
                    <mxGeometry x="152.5" y="210" width="75" height="30" as="geometry"/>
                </mxCell>
                <mxCell id="LmdTJsE1u3Maj20NN5aT-24" value="&lt;font style=&quot;font-size: 14px;&quot;&gt;32bit&lt;/font&gt;" style="endArrow=none;html=1;" parent="LmdTJsE1u3Maj20NN5aT-29" edge="1">
                    <mxGeometry width="50" height="50" relative="1" as="geometry">
                        <mxPoint x="15" y="40" as="sourcePoint"/>
                        <mxPoint x="355" y="40" as="targetPoint"/>
                    </mxGeometry>
                </mxCell>
                <mxCell id="LmdTJsE1u3Maj20NN5aT-27" value="UDP：报文段格式" style="text;html=1;strokeColor=none;fillColor=none;align=center;verticalAlign=middle;whiteSpace=wrap;rounded=0;fontSize=14;" parent="LmdTJsE1u3Maj20NN5aT-29" vertex="1">
                    <mxGeometry y="10" width="145" height="30" as="geometry"/>
                </mxCell>
            </root>
        </mxGraphModel>
    </diagram>
</mxfile>